<?xml version='1.0' encoding='utf-8'?>
<svg xmlns="http://www.w3.org/2000/svg" viewBox="0 0 800 800" preserveAspectRatio="xMidYMid slice"><defs><linearGradient id="grad1" x1="0" y1="0" x2="1" y2="1"><stop offset="0%" stop-color="#ffffff" /><stop offset="100%" stop-color="#f2f2f2" /></linearGradient></defs><polygon fill="#ffffff" points="0,0 100,0 50,100" /><polygon fill="#f9f9f9" points="100,0 200,0 150,100" /><polygon fill="#f0f0f0" points="200,0 300,0 250,100" /><polygon fill="#eaeaea" points="300,0 400,0 350,100" /><polygon fill="#f6f6f6" points="400,0 500,0 450,100" /><polygon fill="#eeeeee" points="500,0 600,0 550,100" /><polygon fill="#f4f4f4" points="600,0 700,0 650,100" /><polygon fill="#ffffff" points="700,0 800,0 750,100" /><polygon fill="#f9f9f9" points="0,100 100,100 50,200" /><polygon fill="#f0f0f0" points="100,100 200,100 150,200" /><polygon fill="#eaeaea" points="200,100 300,100 250,200" /><polygon fill="#f6f6f6" points="300,100 400,100 350,200" /><polygon fill="#eeeeee" points="400,100 500,100 450,200" /><polygon fill="#f4f4f4" points="500,100 600,100 550,200" /><polygon fill="#ffffff" points="600,100 700,100 650,200" /><polygon fill="#f9f9f9" points="700,100 800,100 750,200" /><polygon fill="#f0f0f0" points="0,200 100,200 50,300" /><polygon fill="#eaeaea" points="100,200 200,200 150,300" /><polygon fill="#f6f6f6" points="200,200 300,200 250,300" /><polygon fill="#eeeeee" points="300,200 400,200 350,300" /><polygon fill="#f4f4f4" points="400,200 500,200 450,300" /><polygon fill="#ffffff" points="500,200 600,200 550,300" /><polygon fill="#f9f9f9" points="600,200 700,200 650,300" /><polygon fill="#f0f0f0" points="700,200 800,200 750,300" /><polygon fill="#eaeaea" points="0,300 100,300 50,400" /><polygon fill="#f6f6f6" points="100,300 200,300 150,400" /><polygon fill="#eeeeee" points="200,300 300,300 250,400" /><polygon fill="#f4f4f4" points="300,300 400,300 350,400" /><polygon fill="#ffffff" points="400,300 500,300 450,400" /><polygon fill="#f9f9f9" points="500,300 600,300 550,400" /><polygon fill="#f0f0f0" points="600,300 700,300 650,400" /><polygon fill="#eaeaea" points="700,300 800,300 750,400" /><polygon fill="#f6f6f6" points="0,400 100,400 50,500" /><polygon fill="#eeeeee" points="100,400 200,400 150,500" /><polygon fill="#f4f4f4" points="200,400 300,400 250,500" /><polygon fill="#ffffff" points="300,400 400,400 350,500" /><polygon fill="#f9f9f9" points="400,400 500,400 450,500" /><polygon fill="#f0f0f0" points="500,400 600,400 550,500" /><polygon fill="#eaeaea" points="600,400 700,400 650,500" /><polygon fill="#f6f6f6" points="700,400 800,400 750,500" /><polygon fill="#eeeeee" points="0,500 100,500 50,600" /><polygon fill="#f4f4f4" points="100,500 200,500 150,600" /><polygon fill="#ffffff" points="200,500 300,500 250,600" /><polygon fill="#f9f9f9" points="300,500 400,500 350,600" /><polygon fill="#f0f0f0" points="400,500 500,500 450,600" /><polygon fill="#eaeaea" points="500,500 600,500 550,600" /><polygon fill="#f6f6f6" points="600,500 700,500 650,600" /><polygon fill="#eeeeee" points="700,500 800,500 750,600" /><polygon fill="#f4f4f4" points="0,600 100,600 50,700" /><polygon fill="#ffffff" points="100,600 200,600 150,700" /><polygon fill="#f9f9f9" points="200,600 300,600 250,700" /><polygon fill="#f0f0f0" points="300,600 400,600 350,700" /><polygon fill="#eaeaea" points="400,600 500,600 450,700" /><polygon fill="#f6f6f6" points="500,600 600,600 550,700" /><polygon fill="#eeeeee" points="600,600 700,600 650,700" /><polygon fill="#f4f4f4" points="700,600 800,600 750,700" /><polygon fill="#ffffff" points="0,700 100,700 50,800" /><polygon fill="#f9f9f9" points="100,700 200,700 150,800" /><polygon fill="#f0f0f0" points="200,700 300,700 250,800" /><polygon fill="#eaeaea" points="300,700 400,700 350,800" /><polygon fill="#f6f6f6" points="400,700 500,700 450,800" /><polygon fill="#eeeeee" points="500,700 600,700 550,800" /><polygon fill="#f4f4f4" points="600,700 700,700 650,800" /><polygon fill="#ffffff" points="700,700 800,700 750,800" /></svg>